<svg width="250" height="250" viewBox="0 0 250 250" fill="none" xmlns="http://www.w3.org/2000/svg">
<circle cx="8.32553" cy="84.922" r="6.22342" transform="rotate(-26.076 8.32553 84.922)" fill="#A3E1FF"/>
<circle cx="47.4552" cy="65.7729" r="6.22342" transform="rotate(-26.076 47.4552 65.7729)" fill="#A3E1FF"/>
<circle cx="86.5848" cy="46.6238" r="6.22342" transform="rotate(-26.076 86.5848 46.6238)" fill="#A3E1FF"/>
<circle cx="125.714" cy="27.4746" r="6.22342" transform="rotate(-26.076 125.714 27.4746)" fill="#A3E1FF"/>
<circle cx="164.844" cy="8.32553" r="6.22342" transform="rotate(-26.076 164.844 8.32553)" fill="#A3E1FF"/>
<circle cx="27.4747" cy="124.052" r="6.22342" transform="rotate(-26.076 27.4747 124.052)" fill="#A3E1FF"/>
<circle cx="66.6041" cy="104.902" r="6.22342" transform="rotate(-26.076 66.6041 104.902)" fill="#A3E1FF"/>
<circle cx="105.734" cy="85.7534" r="6.22342" transform="rotate(-26.076 105.734 85.7534)" fill="#A3E1FF"/>
<circle cx="144.864" cy="66.6043" r="6.22342" transform="rotate(-26.076 144.864 66.6043)" fill="#A3E1FF"/>
<circle cx="183.993" cy="47.4551" r="6.22342" transform="rotate(-26.076 183.993 47.4551)" fill="#A3E1FF"/>
<circle cx="46.6239" cy="163.181" r="6.22342" transform="rotate(-26.076 46.6239 163.181)" fill="#A3E1FF"/>
<circle cx="85.7533" cy="144.032" r="6.22342" transform="rotate(-26.076 85.7533 144.032)" fill="#A3E1FF"/>
<circle cx="124.883" cy="124.883" r="6.22342" transform="rotate(-26.076 124.883 124.883)" fill="#A3E1FF"/>
<circle cx="164.013" cy="105.734" r="6.22342" transform="rotate(-26.076 164.013 105.734)" fill="#A3E1FF"/>
<circle cx="203.142" cy="86.5848" r="6.22342" transform="rotate(-26.076 203.142 86.5848)" fill="#A3E1FF"/>
<circle cx="65.7728" cy="202.311" r="6.22342" transform="rotate(-26.076 65.7728 202.311)" fill="#A3E1FF"/>
<circle cx="104.902" cy="183.162" r="6.22342" transform="rotate(-26.076 104.902 183.162)" fill="#A3E1FF"/>
<circle cx="144.032" cy="164.013" r="6.22342" transform="rotate(-26.076 144.032 164.013)" fill="#A3E1FF"/>
<circle cx="183.162" cy="144.863" r="6.22342" transform="rotate(-26.076 183.162 144.863)" fill="#A3E1FF"/>
<circle cx="222.291" cy="125.714" r="6.22342" transform="rotate(-26.076 222.291 125.714)" fill="#A3E1FF"/>
<circle cx="84.922" cy="241.44" r="6.22342" transform="rotate(-26.076 84.922 241.44)" fill="#A3E1FF"/>
<circle cx="124.052" cy="222.291" r="6.22342" transform="rotate(-26.076 124.052 222.291)" fill="#A3E1FF"/>
<circle cx="163.181" cy="203.142" r="6.22342" transform="rotate(-26.076 163.181 203.142)" fill="#A3E1FF"/>
<circle cx="202.311" cy="183.993" r="6.22342" transform="rotate(-26.076 202.311 183.993)" fill="#A3E1FF"/>
<circle cx="241.441" cy="164.844" r="6.22342" transform="rotate(-26.076 241.441 164.844)" fill="#A3E1FF"/>
</svg>
