<svg width="1568" height="1179" viewBox="0 0 1568 1179" fill="none" xmlns="http://www.w3.org/2000/svg">
<path d="M1235.88 354.5C1130.28 324.5 1139.83 198.84 1137 143.34C1132 89.6736 988.724 0.165916 934.877 0.166016C821 0.166226 658.167 109.5 651 133C612 165.5 574.9 113.8 428.5 133C335.035 145.258 116.168 262.065 54.4665 390.5C-55 556 34 799 54.4665 892L54.5003 892.153C66.1799 945.226 98.5737 1092.42 198 1118.5C325.597 1151.96 534 1027.5 598.5 1118.5C666.663 1214.67 1002.38 1171.33 1078.38 1149.66C1118.38 1140.66 1155.5 1075 1185.5 979C1215.5 883 1317.04 921.661 1338.88 946.161C1407.38 946.161 1548.78 905.061 1566.38 740.661C1588.38 535.161 1367.88 392 1235.88 354.5Z" fill="url(#paint0_linear)"/>
<defs>
<linearGradient id="paint0_linear" x1="1542.38" y1="660.665" x2="755.376" y2="621.665" gradientUnits="userSpaceOnUse">
<stop stop-color="#C9F1F7"/>
<stop offset="1" stop-color="#CFFAFF" stop-opacity="0.38"/>
</linearGradient>
</defs>
</svg>
