<svg xmlns="http://www.w3.org/2000/svg" viewBox="0 0 451.5 512"><path d="M451.5 0l-41.1 460.7L225.5 512 41.1 460.8 0 0h451.5z" fill="#264de4"/><path d="M375.1 431.4l35.1-393.7H225.7v435.1l149.4-41.4z" fill="#2965f1"/><path d="M94.2 208.6l5.1 56.5h126.5v-56.5H94.2zM225.7 94.2H84l5.1 56.5h136.6V94.2zm0 320v-58.8l-.2.1-62.9-17-4-45.1h-56.7l7.9 88.7 115.8 32.1h.1z" fill="#ebebeb"/><path d="M295.1 265.1l-6.6 73.3-63 17v58.8l115.9-32.1.9-9.5 13.3-148.8 1.4-15.2 10.2-114.4H225.5v56.5h79.6l-5.1 57.9h-74.5v56.5h69.6z" fill="#fff"/></svg>