<?xml version="1.0" encoding="utf-8"?>
<!-- Generator: Adobe Illustrator 23.0.1, SVG Export Plug-In . SVG Version: 6.00 Build 0)  -->
<svg version="1.1" id="Layer_1" xmlns="http://www.w3.org/2000/svg" xmlns:xlink="http://www.w3.org/1999/xlink" x="0px" y="0px"
	 viewBox="0 0 451.5 512" style="enable-background:new 0 0 451.5 512;" xml:space="preserve">
<style type="text/css">
	.st0{fill:#264DE4;}
	.st1{fill:#2965F1;}
	.st2{fill:#EBEBEB;}
	.st3{fill:#FFFFFF;}
</style>
<path class="st0" d="M451.5,0l-41.1,460.7L225.5,512L41.1,460.8L0,0H451.5z"/>
<path class="st1" d="M375.1,431.4l35.1-393.7H225.7v435.1L375.1,431.4z"/>
<path class="st2" d="M94.2,208.6l5.1,56.5h126.5v-56.5H94.2z M225.7,94.2H84l5.1,56.5h136.6V94.2z M225.7,414.2v-58.8l-0.2,0.1
	l-62.9-17l-4-45.1h-56.7l7.9,88.7l115.8,32.1L225.7,414.2z"/>
<path class="st3" d="M295.1,265.1l-6.6,73.3l-63,17v58.8l115.9-32.1l0.9-9.5l13.3-148.8l1.4-15.2l10.2-114.4H225.5v56.5h79.6
	l-5.1,57.9h-74.5v56.5L295.1,265.1z"/>
</svg>
