<svg xmlns="http://www.w3.org/2000/svg" width="45.927" height="45.928" viewBox="0 0 45.927 45.928">
  <path id="facebook" d="M39.74,0H6.191A6.189,6.189,0,0,0,0,6.189v33.55a6.189,6.189,0,0,0,6.189,6.189H22.737l.028-16.412H18.5a1.006,1.006,0,0,1-1.006-1l-.02-5.29a1.006,1.006,0,0,1,1.006-1.01h4.256V17.1c0-5.932,3.623-9.162,8.915-9.162h4.342A1.006,1.006,0,0,1,37,8.945v4.461A1.006,1.006,0,0,1,36,14.412H33.33c-2.878,0-3.435,1.368-3.435,3.374v4.425h6.324a1.006,1.006,0,0,1,1,1.125l-.627,5.29a1.006,1.006,0,0,1-1,.888H29.923L29.9,45.928h9.845a6.189,6.189,0,0,0,6.189-6.189V6.189A6.189,6.189,0,0,0,39.74,0Z" transform="translate(-0.002)" fill="#d6d6d6"/>
</svg>
