<svg xmlns="http://www.w3.org/2000/svg" width="45.927" height="45.928"><path d="M39.738 0H6.189A6.189 6.189 0 00-.002 6.189v33.55a6.189 6.189 0 006.189 6.189h16.548l.028-16.412h-4.265a1.006 1.006 0 01-1.006-1l-.02-5.29a1.006 1.006 0 011.006-1.01h4.256V17.1c0-5.932 3.623-9.162 8.915-9.162h4.342a1.006 1.006 0 011.007 1.007v4.461a1.006 1.006 0 01-1 1.006h-2.67c-2.878 0-3.435 1.368-3.435 3.374v4.425h6.324a1.006 1.006 0 011 1.125l-.627 5.29a1.006 1.006 0 01-1 .888h-5.669l-.023 16.414h9.845a6.189 6.189 0 006.189-6.189V6.189A6.189 6.189 0 0039.738 0z" fill="#d6d6d6"/></svg>