<svg xmlns="http://www.w3.org/2000/svg" width="46.306" height="45.173"><path data-name="Path 8" d="M43.2 11.535a23.052 23.052 0 00-8.426-8.43A22.646 22.646 0 0023.153 0a22.648 22.648 0 00-11.622 3.105 23.049 23.049 0 00-8.426 8.43A22.647 22.647 0 000 23.152a22.5 22.5 0 004.416 13.611 22.676 22.676 0 0011.41 8.366 1.349 1.349 0 001.206-.211 1.179 1.179 0 00.392-.9l-.015-1.628q-.015-1.538-.015-2.683l-.693.12a8.845 8.845 0 01-1.673.106 12.747 12.747 0 01-2.1-.211 4.682 4.682 0 01-2.02-.9 3.825 3.825 0 01-1.326-1.854l-.3-.694a7.533 7.533 0 00-.949-1.537 3.638 3.638 0 00-1.311-1.145l-.209-.157a2.213 2.213 0 01-.392-.362 1.654 1.654 0 01-.271-.422q-.091-.211.151-.347a1.955 1.955 0 01.874-.135l.6.09a4.4 4.4 0 011.492.723 4.866 4.866 0 011.462 1.567 5.314 5.314 0 001.671 1.886 3.549 3.549 0 001.974.648 8.573 8.573 0 001.718-.15 6 6 0 001.357-.452 4.884 4.884 0 011.477-3.105 20.643 20.643 0 01-3.09-.543 12.3 12.3 0 01-2.833-1.176 8.116 8.116 0 01-2.422-2.022A9.706 9.706 0 019 26.468a15.053 15.053 0 01-.618-4.522 8.793 8.793 0 012.382-6.21 8.1 8.1 0 01.211-6.15 4.224 4.224 0 012.593.407 18.126 18.126 0 012.517 1.161q.8.482 1.281.814a21.772 21.772 0 0111.577 0l1.146-.723a16.224 16.224 0 012.773-1.327 3.951 3.951 0 012.443-.331 8.026 8.026 0 01.241 6.15 8.8 8.8 0 012.382 6.21 15.221 15.221 0 01-.618 4.537 9.329 9.329 0 01-1.6 3.165 8.428 8.428 0 01-2.442 2 12.327 12.327 0 01-2.834 1.176 20.621 20.621 0 01-3.09.543 5.369 5.369 0 011.567 4.28v6.36a1.2 1.2 0 00.377.9 1.309 1.309 0 001.191.211 22.672 22.672 0 0011.411-8.365 22.505 22.505 0 004.416-13.611A22.666 22.666 0 0043.2 11.535z" fill="#d6d6d6"/></svg>