<svg id="github-logo" xmlns="http://www.w3.org/2000/svg" width="46.306" height="45.173" viewBox="0 0 46.306 45.173">
  <path id="Path_8" data-name="Path 8" d="M43.2,16.9A23.052,23.052,0,0,0,34.774,8.47,22.646,22.646,0,0,0,23.153,5.365,22.648,22.648,0,0,0,11.531,8.47,23.049,23.049,0,0,0,3.105,16.9,22.647,22.647,0,0,0,0,28.517,22.5,22.5,0,0,0,4.416,42.128a22.676,22.676,0,0,0,11.41,8.366,1.349,1.349,0,0,0,1.206-.211,1.179,1.179,0,0,0,.392-.9q0-.09-.015-1.628t-.015-2.683l-.693.12a8.845,8.845,0,0,1-1.673.106,12.747,12.747,0,0,1-2.1-.211,4.682,4.682,0,0,1-2.02-.9,3.825,3.825,0,0,1-1.326-1.854l-.3-.694a7.533,7.533,0,0,0-.949-1.537,3.638,3.638,0,0,0-1.311-1.145L6.813,38.8a2.213,2.213,0,0,1-.392-.362,1.654,1.654,0,0,1-.271-.422q-.091-.211.151-.347a1.955,1.955,0,0,1,.874-.135l.6.09a4.4,4.4,0,0,1,1.492.723,4.866,4.866,0,0,1,1.462,1.567A5.314,5.314,0,0,0,12.4,41.8a3.549,3.549,0,0,0,1.974.648,8.573,8.573,0,0,0,1.718-.15,6,6,0,0,0,1.357-.452,4.884,4.884,0,0,1,1.477-3.105,20.643,20.643,0,0,1-3.09-.543,12.3,12.3,0,0,1-2.833-1.176A8.116,8.116,0,0,1,10.581,35,9.706,9.706,0,0,1,9,31.833a15.053,15.053,0,0,1-.618-4.522,8.793,8.793,0,0,1,2.382-6.21,8.1,8.1,0,0,1,.211-6.15,4.224,4.224,0,0,1,2.593.407,18.126,18.126,0,0,1,2.517,1.161q.8.482,1.281.814a21.772,21.772,0,0,1,11.577,0l1.146-.723a16.224,16.224,0,0,1,2.773-1.327,3.951,3.951,0,0,1,2.443-.331,8.026,8.026,0,0,1,.241,6.15,8.8,8.8,0,0,1,2.382,6.21,15.221,15.221,0,0,1-.618,4.537,9.329,9.329,0,0,1-1.6,3.165,8.428,8.428,0,0,1-2.442,2,12.327,12.327,0,0,1-2.834,1.176,20.621,20.621,0,0,1-3.09.543,5.369,5.369,0,0,1,1.567,4.28v6.36a1.2,1.2,0,0,0,.377.9,1.309,1.309,0,0,0,1.191.211,22.672,22.672,0,0,0,11.411-8.365,22.505,22.505,0,0,0,4.416-13.611A22.666,22.666,0,0,0,43.2,16.9Z" transform="translate(0 -5.365)" fill="#d6d6d6"/>
</svg>
