<svg xmlns="http://www.w3.org/2000/svg" viewBox="0 0 50 50"><path d="M7 2v46h36V2zm9.445 12.93c.035-.399 0-.672 0-1.035-.18-.098-.683-.606-.761-1.176 0 0-.407-.196-.43-.805-.012-.324.215-.555.215-.555C15.047 9.73 15.23 8.04 17.41 8c.543 0 .953.262 1.117.55 1.516 0 1.121 2.114.895 2.81.082.085.187.32.187.632 0 .453-.43.727-.43.727-.081.578-.488 1.054-.734 1.172 0 .363-.039.64 0 1.039.43 1.16 3.309.832 3.446 3.07H13c.133-2.238 3.012-1.91 3.445-3.07zM28 39H14a1 1 0 110-2h14c.555 0 1 .445 1 1 0 .555-.445 1-1 1zm-15-7a1 1 0 011-1h11a1 1 0 110 2H14a1 1 0 01-1-1zm15-5H14a1 1 0 110-2h14a1 1 0 110 2zm8 12h-3c-.555 0-1-.445-1-1 0-.555.445-1 1-1h3c.555 0 1 .445 1 1 0 .555-.445 1-1 1zm0-6h-3c-.555 0-1-.445-1-1 0-.555.445-1 1-1h3c.555 0 1 .445 1 1 0 .555-.445 1-1 1zm0-6h-3a1 1 0 110-2h3a1 1 0 110 2zm0-10h-8a1 1 0 110-2h8a1 1 0 110 2zm0-5h-8a1 1 0 110-2h8a1 1 0 110 2z" fill="#FFF"/></svg>