<svg id="instagram" xmlns="http://www.w3.org/2000/svg" width="51.606" height="51.606" viewBox="0 0 51.606 51.606">
  <path id="Path_9" data-name="Path 9" d="M36.232,0H15.374A15.391,15.391,0,0,0,0,15.374V36.232A15.391,15.391,0,0,0,15.374,51.606H36.232A15.391,15.391,0,0,0,51.606,36.232V15.374A15.391,15.391,0,0,0,36.232,0ZM46.415,36.232A10.182,10.182,0,0,1,36.232,46.415H15.374A10.182,10.182,0,0,1,5.192,36.232V15.374A10.182,10.182,0,0,1,15.374,5.192H36.232A10.182,10.182,0,0,1,46.415,15.374V36.232Z" fill="#d6d6d6"/>
  <path id="Path_10" data-name="Path 10" d="M146.347,133a13.347,13.347,0,1,0,13.347,13.347A13.362,13.362,0,0,0,146.347,133Zm0,21.5a8.156,8.156,0,1,1,8.156-8.156A8.156,8.156,0,0,1,146.347,154.5Z" transform="translate(-120.544 -120.544)" fill="#d6d6d6"/>
  <ellipse id="Ellipse_1" data-name="Ellipse 1" cx="3.198" cy="3.198" rx="3.198" ry="3.198" transform="translate(35.978 9.358)" fill="#d6d6d6"/>
</svg>
