<svg xmlns="http://www.w3.org/2000/svg" width="51.606" height="51.606"><path data-name="Path 9" d="M36.232 0H15.374A15.391 15.391 0 000 15.374v20.858a15.391 15.391 0 0015.374 15.374h20.858a15.391 15.391 0 0015.374-15.374V15.374A15.391 15.391 0 0036.232 0zm10.183 36.232a10.182 10.182 0 01-10.183 10.183H15.374A10.182 10.182 0 015.192 36.232V15.374A10.182 10.182 0 0115.374 5.192h20.858a10.182 10.182 0 0110.183 10.182v20.858z" fill="#d6d6d6"/><path data-name="Path 10" d="M25.803 12.456A13.347 13.347 0 1039.15 25.803a13.362 13.362 0 00-13.347-13.347zm0 21.5a8.156 8.156 0 118.156-8.156 8.156 8.156 0 01-8.156 8.156z" fill="#d6d6d6"/><circle data-name="Ellipse 1" cx="3.198" cy="3.198" transform="translate(35.978 9.358)" fill="#d6d6d6" r="3.198"/></svg>