<svg xmlns="http://www.w3.org/2000/svg" width="44.489" height="44.489" viewBox="0 0 44.489 44.489">
  <path id="linkedin" d="M40.464,0H4.024A4.024,4.024,0,0,0,0,4.024v36.44a4.024,4.024,0,0,0,4.024,4.024h36.44a4.024,4.024,0,0,0,4.024-4.024V4.024A4.024,4.024,0,0,0,40.464,0Zm-26.7,38.415A1.171,1.171,0,0,1,12.6,39.586H7.61a1.171,1.171,0,0,1-1.171-1.171v-20.9A1.171,1.171,0,0,1,7.61,16.345H12.6a1.171,1.171,0,0,1,1.171,1.171ZM10.1,14.375a4.736,4.736,0,1,1,4.736-4.736A4.736,4.736,0,0,1,10.1,14.375ZM39.82,38.509a1.077,1.077,0,0,1-1.077,1.077h-5.35a1.077,1.077,0,0,1-1.077-1.077v-9.8c0-1.462.429-6.408-3.821-6.408-3.3,0-3.966,3.385-4.1,4.9V38.509a1.077,1.077,0,0,1-1.077,1.077H18.144a1.077,1.077,0,0,1-1.077-1.077V17.422a1.077,1.077,0,0,1,1.077-1.077h5.174A1.077,1.077,0,0,1,24.4,17.422v1.823c1.223-1.835,3.039-3.251,6.908-3.251,8.566,0,8.517,8,8.517,12.4V38.509Z" fill="#d6d6d6"/>
</svg>
