<svg xmlns="http://www.w3.org/2000/svg" width="44.489" height="44.489"><path d="M40.464 0H4.024A4.024 4.024 0 000 4.024v36.44a4.024 4.024 0 004.024 4.024h36.44a4.024 4.024 0 004.024-4.024V4.024A4.024 4.024 0 0040.464 0zm-26.7 38.415a1.171 1.171 0 01-1.164 1.171H7.61a1.171 1.171 0 01-1.171-1.171v-20.9a1.171 1.171 0 011.171-1.17h4.99a1.171 1.171 0 011.171 1.171zM10.1 14.375a4.736 4.736 0 114.736-4.736 4.736 4.736 0 01-4.736 4.736zm29.72 24.134a1.077 1.077 0 01-1.077 1.077h-5.35a1.077 1.077 0 01-1.077-1.077v-9.8c0-1.462.429-6.408-3.821-6.408-3.3 0-3.966 3.385-4.1 4.9v11.308a1.077 1.077 0 01-1.077 1.077h-5.174a1.077 1.077 0 01-1.077-1.077V17.422a1.077 1.077 0 011.077-1.077h5.174a1.077 1.077 0 011.082 1.077v1.823c1.223-1.835 3.039-3.251 6.908-3.251 8.566 0 8.517 8 8.517 12.4v10.115z" fill="#d6d6d6"/></svg>