<svg xmlns="http://www.w3.org/2000/svg" width="51.744" height="43.041"><path d="M50.921 5.009a20.489 20.489 0 01-3.568 1.2 11.124 11.124 0 002.936-4.676.583.583 0 00-.853-.679 20.587 20.587 0 01-5.454 2.255 1.39 1.39 0 01-.341.042 1.446 1.446 0 01-.955-.365A11.155 11.155 0 0035.3 0a11.927 11.927 0 00-3.534.546 10.808 10.808 0 00-7.284 7.787 11.9 11.9 0 00-.265 4.108.4.4 0 01-.1.313.414.414 0 01-.308.14h-.04A29.251 29.251 0 013.67 2.15a.583.583 0 00-.956.075 11.168 11.168 0 001.815 13.56 10 10 0 01-2.544-.985.583.583 0 00-.866.5 11.169 11.169 0 006.515 10.29h-.238a10.038 10.038 0 01-1.879-.179.583.583 0 00-.665.751 11.18 11.18 0 008.831 7.6 20.585 20.585 0 01-11.529 3.5H.862a.854.854 0 00-.835.644.884.884 0 00.423.976 30.618 30.618 0 0015.385 4.148 31.038 31.038 0 0013.148-2.789 29.034 29.034 0 009.62-7.209 31.6 31.6 0 005.89-9.866 31.165 31.165 0 002-10.8v-.157a1.9 1.9 0 01.71-1.478 22.049 22.049 0 004.436-4.868.583.583 0 00-.721-.857z" fill="#d6d6d6"/></svg>