<svg xmlns="http://www.w3.org/2000/svg" width="51.744" height="43.041" viewBox="0 0 51.744 43.041">
  <path id="twitter" d="M50.921,39.5a20.489,20.489,0,0,1-3.568,1.2,11.124,11.124,0,0,0,2.936-4.676h0a.583.583,0,0,0-.853-.679h0A20.587,20.587,0,0,1,43.982,37.6a1.39,1.39,0,0,1-.341.042,1.446,1.446,0,0,1-.955-.365A11.155,11.155,0,0,0,35.3,34.491a11.927,11.927,0,0,0-3.534.546,10.808,10.808,0,0,0-7.284,7.787,11.9,11.9,0,0,0-.265,4.108.4.4,0,0,1-.1.313.414.414,0,0,1-.308.14l-.04,0A29.251,29.251,0,0,1,3.67,36.641h0a.583.583,0,0,0-.956.075h0a11.168,11.168,0,0,0,1.815,13.56,10,10,0,0,1-2.544-.985h0a.583.583,0,0,0-.866.5h0a11.169,11.169,0,0,0,6.515,10.29l-.238,0a10.038,10.038,0,0,1-1.879-.179h0a.583.583,0,0,0-.665.751h0a11.18,11.18,0,0,0,8.831,7.6,20.585,20.585,0,0,1-11.529,3.5H.862a.854.854,0,0,0-.835.644.884.884,0,0,0,.423.976,30.618,30.618,0,0,0,15.385,4.148,31.038,31.038,0,0,0,13.148-2.789,29.034,29.034,0,0,0,9.62-7.209,31.6,31.6,0,0,0,5.89-9.866,31.165,31.165,0,0,0,2-10.8V46.7a1.9,1.9,0,0,1,.71-1.478,22.049,22.049,0,0,0,4.436-4.868h0a.583.583,0,0,0-.721-.857Z" transform="translate(0 -34.491)" fill="#d6d6d6"/>
</svg>
