<svg width="524" height="545" viewBox="0 0 524 545" fill="none" xmlns="http://www.w3.org/2000/svg">
<path d="M0 272.881C0 230.456 7.38387 191.796 22.1516 156.903V388.859C7.38387 353.966 0 315.306 0 272.881Z" fill="#253339"/>
<path d="M219.479 541.189C187.228 536.107 157.353 525.944 129.854 510.699C89.1157 487.324 57.2886 455.056 34.3732 413.895C29.8536 405.777 25.7798 397.432 22.1516 388.859V541.189H219.479Z" fill="#253339"/>
<path d="M320.487 541.189H219.479C235.605 543.73 252.324 545 269.638 545C287.293 545 304.242 543.73 320.487 541.189Z" fill="#253339"/>
<path d="M323.872 540.639C322.747 540.829 321.619 541.012 320.487 541.189H323.872V540.639Z" fill="#253339"/>
<path d="M152.77 360.08V440.573H323.872V540.639C364.816 533.747 401.226 518.686 433.102 495.454C478.424 461.916 508.723 416.182 524 358.252H380.397C369.703 380.611 354.426 397.634 334.566 409.322C315.215 421.009 293.063 426.853 268.111 426.853C227.881 426.853 195.291 412.879 170.338 384.93C163.562 377.34 157.706 369.057 152.77 360.08Z" fill="#253339"/>
<path d="M152.77 185.682C139.53 209.76 132.91 238.827 132.91 272.881C132.91 306.936 139.53 336.002 152.77 360.08V185.682Z" fill="#253339"/>
<path fill-rule="evenodd" clip-rule="evenodd" d="M152.77 160.05V185.682C157.706 176.705 163.562 168.422 170.338 160.832C192.087 136.472 219.639 122.728 252.994 119.6C258.825 119.727 264.268 120.294 269.448 121.21C286.204 124.176 300.23 130.81 315.778 138.165C316.264 138.394 316.751 138.625 317.24 138.856C342.896 150.983 356.077 176.494 359.451 187.717L359.542 188.019H507.959V187.51H524C508.723 129.58 478.424 83.8462 433.102 50.3077C387.78 16.7692 333.293 0 269.638 0C227.095 0 188.139 7.84074 152.77 23.5222V6.09791H22.1516V156.903C25.7798 148.331 29.8536 139.985 34.3732 131.867C57.2886 90.1981 89.1157 57.9301 129.854 35.0629C137.318 30.8334 144.956 26.9865 152.77 23.5222V158.8C139.16 173.44 130.591 189.115 126.913 198.873C120.818 213.588 109.645 251.152 113.732 283.774C113.975 285.717 114.212 287.626 114.444 289.502L114.445 289.51C119.076 326.862 122.112 351.347 145.228 379.271L145.883 378.732C122.927 351.002 119.919 326.745 115.281 289.35C115.05 287.49 114.815 285.597 114.574 283.669C110.513 251.252 121.63 213.84 127.7 199.191L127.703 199.184L127.705 199.178C131.299 189.637 139.612 174.397 152.77 160.05ZM259.848 119.111C263.21 119.392 266.451 119.82 269.596 120.377C286.466 123.363 300.585 130.041 316.105 137.382L316.187 137.421C316.658 137.644 317.13 137.867 317.603 138.09C343.322 150.247 356.614 175.661 360.172 187.172H380.234C369.548 164.979 354.325 148.069 334.566 136.441C315.215 124.753 293.063 118.909 268.111 118.909C265.32 118.909 262.566 118.976 259.848 119.111Z" fill="#253339"/>
</svg>
