<svg width="235" height="235" viewBox="0 0 235 235" fill="none" xmlns="http://www.w3.org/2000/svg">
<circle cx="7.81252" cy="79.6892" r="5.83994" transform="rotate(-26.076 7.81252 79.6892)" fill="#C4C4C4"/>
<ellipse cx="44.531" cy="61.72" rx="5.83994" ry="5.83994" transform="rotate(-26.076 44.531 61.72)" fill="#C4C4C4"/>
<ellipse cx="81.2495" cy="43.7507" rx="5.83994" ry="5.83994" transform="rotate(-26.076 81.2495 43.7507)" fill="#C4C4C4"/>
<ellipse cx="117.968" cy="25.7815" rx="5.83993" ry="5.83994" transform="rotate(-26.076 117.968 25.7815)" fill="#C4C4C4"/>
<ellipse cx="154.686" cy="7.81275" rx="5.83994" ry="5.83994" transform="rotate(-26.076 154.686 7.81275)" fill="#C4C4C4"/>
<ellipse cx="25.7818" cy="116.407" rx="5.83994" ry="5.83994" transform="rotate(-26.076 25.7818 116.407)" fill="#C4C4C4"/>
<ellipse cx="62.5" cy="98.4387" rx="5.83994" ry="5.83994" transform="rotate(-26.076 62.5 98.4387)" fill="#C4C4C4"/>
<ellipse cx="99.2185" cy="80.4695" rx="5.83994" ry="5.83994" transform="rotate(-26.076 99.2185 80.4695)" fill="#C4C4C4"/>
<ellipse cx="135.937" cy="62.5003" rx="5.83994" ry="5.83994" transform="rotate(-26.076 135.937 62.5003)" fill="#C4C4C4"/>
<ellipse cx="172.656" cy="44.531" rx="5.83994" ry="5.83994" transform="rotate(-26.076 172.656 44.531)" fill="#C4C4C4"/>
<ellipse cx="43.751" cy="153.126" rx="5.83994" ry="5.83994" transform="rotate(-26.076 43.751 153.126)" fill="#C4C4C4"/>
<ellipse cx="80.4693" cy="135.157" rx="5.83994" ry="5.83994" transform="rotate(-26.076 80.4693 135.157)" fill="#C4C4C4"/>
<circle cx="117.188" cy="117.188" r="5.83994" transform="rotate(-26.076 117.188 117.188)" fill="#C4C4C4"/>
<circle cx="153.906" cy="99.2185" r="5.83994" transform="rotate(-26.076 153.906 99.2185)" fill="#C4C4C4"/>
<circle cx="190.625" cy="81.2498" r="5.83994" transform="rotate(-26.076 190.625 81.2498)" fill="#C4C4C4"/>
<ellipse cx="61.72" cy="189.844" rx="5.83994" ry="5.83994" transform="rotate(-26.076 61.72 189.844)" fill="#C4C4C4"/>
<ellipse cx="98.4385" cy="171.876" rx="5.83994" ry="5.83994" transform="rotate(-26.076 98.4385 171.876)" fill="#C4C4C4"/>
<ellipse cx="135.157" cy="153.906" rx="5.83994" ry="5.83994" transform="rotate(-26.076 135.157 153.906)" fill="#C4C4C4"/>
<circle cx="171.876" cy="135.937" r="5.83993" transform="rotate(-26.076 171.876 135.937)" fill="#C4C4C4"/>
<circle cx="208.594" cy="117.968" r="5.83994" transform="rotate(-26.076 208.594 117.968)" fill="#C4C4C4"/>
<ellipse cx="79.689" cy="226.563" rx="5.83994" ry="5.83995" transform="rotate(-26.076 79.689 226.563)" fill="#C4C4C4"/>
<ellipse cx="116.408" cy="208.594" rx="5.83994" ry="5.83994" transform="rotate(-26.076 116.408 208.594)" fill="#C4C4C4"/>
<ellipse cx="153.126" cy="190.625" rx="5.83994" ry="5.83994" transform="rotate(-26.076 153.126 190.625)" fill="#C4C4C4"/>
<ellipse cx="189.845" cy="172.656" rx="5.83994" ry="5.83994" transform="rotate(-26.076 189.845 172.656)" fill="#C4C4C4"/>
<circle cx="226.563" cy="154.686" r="5.83994" transform="rotate(-26.076 226.563 154.686)" fill="#C4C4C4"/>
</svg>
