<svg width="483" height="1063" viewBox="0 0 483 1063" fill="none" xmlns="http://www.w3.org/2000/svg">
<path d="M140.5 270C34.9001 240 2.83337 121.5 6.10352e-05 65.9998C-4.99994 12.3332 -28.1 -98.1002 -80.5 -110.5C-132.9 -122.9 -160.333 -79.0002 -167.5 -55.5002C-206.5 -23.0002 -321.1 46.7998 -467.5 65.9998C-650.5 89.9998 -515.5 473.5 -536 595.5C-556.5 717.5 -474.5 933 -354.5 1018.5C-258.5 1086.9 -82.4999 1060.67 -6.49994 1039C33.5001 1030 121 988 151 892C181 796 232.167 821 254 845.5C322.5 845.5 463.9 804.4 481.5 640C503.5 434.5 272.5 307.5 140.5 270Z" fill="url(#paint0_linear)"/>
<defs>
<linearGradient id="paint0_linear" x1="457.5" y1="560" x2="-329.5" y2="521" gradientUnits="userSpaceOnUse">
<stop stop-color="#C9F1F7"/>
<stop offset="1" stop-color="#CFFAFF" stop-opacity="0"/>
</linearGradient>
</defs>
</svg>
