<?xml version="1.0" standalone="no"?>
<!DOCTYPE svg PUBLIC "-//W3C//DTD SVG 20010904//EN"
 "http://www.w3.org/TR/2001/REC-SVG-20010904/DTD/svg10.dtd">
<svg version="1.0" xmlns="http://www.w3.org/2000/svg"
 width="545.000000pt" height="545.000000pt" viewBox="0 0 545.000000 545.000000"
 preserveAspectRatio="xMidYMid meet">
<metadata>
Created by potrace 1.11, written by Peter Selinger 2001-2013
</metadata>
<g transform="translate(0.000000,545.000000) scale(0.100000,-0.100000)"
fill="#000000" stroke="none">
<path d="M2579 5446 c-2 -2 -41 -7 -85 -10 -45 -4 -93 -9 -105 -11 -13 -2 -46
-7 -74 -11 -27 -4 -54 -8 -60 -10 -5 -1 -28 -5 -50 -9 -22 -3 -48 -8 -57 -11
-9 -3 -26 -7 -37 -9 -97 -19 -353 -101 -437 -141 -19 -9 -37 -14 -40 -11 -4 3
-6 42 -7 86 l0 81 -651 -2 -651 -3 -1 -187 c-1 -103 -4 -194 -7 -202 -3 -8 -3
-17 0 -20 6 -5 8 -200 3 -221 -1 -5 -1 -12 0 -15 1 -3 1 -129 1 -280 -1 -151
-1 -291 0 -310 4 -138 3 -180 -1 -183 -3 -1 -3 -17 0 -35 5 -31 9 -26 68 90
72 141 117 221 150 265 12 17 22 36 22 41 0 6 3 12 8 14 4 2 29 33 55 70 26
36 53 72 59 80 7 7 31 35 53 63 67 83 236 247 325 315 25 19 47 38 50 41 11
12 139 99 205 139 81 50 291 160 304 160 5 0 9 -289 9 -674 l0 -674 -35 -38
c-18 -22 -48 -59 -65 -84 -18 -25 -36 -48 -42 -52 -6 -4 -8 -10 -4 -13 3 -4
21 15 39 42 18 26 50 66 71 88 l38 40 -1 -100 c-1 -162 -3 -157 33 -95 17 30
34 57 38 60 3 3 20 25 37 50 37 54 172 193 228 235 22 16 42 32 45 35 12 13
151 91 210 119 61 28 207 74 269 86 103 19 189 24 213 13 10 -5 19 -4 23 2 3
5 11 10 16 10 6 0 7 -4 4 -10 -3 -5 1 -10 10 -10 9 0 13 5 9 11 -4 8 24 9 97
5 109 -6 129 -8 247 -31 82 -17 342 -127 342 -146 0 -4 10 -9 23 -13 12 -3 31
-13 42 -23 11 -10 38 -31 60 -48 103 -76 231 -231 293 -355 l38 -75 85 2 c46
1 89 2 94 3 6 2 14 2 19 1 13 -3 129 -3 141 -1 6 1 14 2 19 1 13 -3 129 -3
141 -1 6 1 14 2 19 1 13 -3 158 -3 171 0 6 1 14 1 18 0 13 -2 210 -3 222 0 6
1 14 1 18 0 10 -2 210 -3 217 -1 3 1 64 2 137 3 l132 2 -6 25 c-3 14 -9 34
-13 45 -4 11 -8 22 -8 25 -4 30 -80 235 -128 343 -53 120 -166 320 -221 392
-5 6 -21 28 -38 50 -16 22 -34 45 -40 51 -5 7 -28 35 -50 63 -117 150 -394
385 -600 508 -131 78 -415 213 -449 213 -2 0 -17 5 -33 12 -15 6 -32 12 -38
13 -5 2 -41 12 -80 23 -38 11 -86 24 -105 28 -19 4 -37 8 -40 9 -43 10 -128
28 -153 31 -17 3 -41 6 -52 8 -11 2 -47 7 -80 11 -33 3 -71 9 -85 12 -28 5
-536 14 -541 9z"/>
<path d="M2780 4245 c0 -7 30 -13 34 -7 3 4 -4 9 -15 9 -10 1 -19 0 -19 -2z"/>
<path d="M2840 4230 c8 -5 22 -9 30 -9 10 0 8 3 -5 9 -27 12 -43 12 -25 0z"/>
<path d="M2895 4221 c6 -6 39 -19 74 -30 35 -11 60 -16 55 -12 -13 12 -140 53
-129 42z"/>
<path d="M3051 4164 c6 -8 17 -14 24 -14 7 0 80 -34 162 -75 132 -66 160 -84
230 -152 81 -79 149 -170 183 -246 11 -23 20 -36 20 -28 0 21 -56 117 -106
182 -81 106 -168 174 -314 247 -175 87 -214 104 -199 86z"/>
<path d="M306 3838 c-44 -102 -105 -287 -120 -368 -3 -14 -10 -43 -15 -65 -6
-22 -12 -56 -16 -75 -3 -19 -7 -46 -10 -60 -5 -26 -10 -60 -19 -125 -29 -211
-29 -672 -1 -838 2 -12 6 -40 9 -62 2 -22 16 -98 31 -170 29 -140 29 -143 37
-165 3 -8 18 -55 33 -105 35 -115 77 -226 83 -220 5 5 7 2091 2 2110 -1 6 -2
12 0 15 3 8 5 160 2 160 -1 0 -9 -15 -16 -32z"/>
<path d="M1436 3598 c-39 -70 -79 -158 -74 -162 1 -2 28 48 59 111 31 62 55
113 53 113 -1 0 -19 -28 -38 -62z"/>
<path d="M3687 3590 c3 -11 9 -20 15 -20 5 0 4 9 -2 20 -6 11 -12 20 -14 20
-2 0 -2 -9 1 -20z"/>
<path d="M1598 3532 c-57 -120 -105 -256 -122 -346 -12 -65 -26 -147 -32 -191
-10 -69 -10 -478 0 -545 4 -30 9 -64 10 -75 2 -11 6 -33 9 -50 4 -16 9 -43 12
-60 9 -46 10 -49 18 -62 5 -7 6 -13 3 -13 -14 0 75 -238 112 -299 l20 -33 -1
866 c0 476 0 866 -1 866 -1 0 -13 -26 -28 -58z"/>
<path d="M3740 3575 c0 -8 38 -11 55 -5 15 6 10 8 -17 8 -21 0 -38 -1 -38 -3z"/>
<path d="M3828 3573 c7 -3 16 -2 19 1 4 3 -2 6 -13 5 -11 0 -14 -3 -6 -6z"/>
<path d="M3868 3573 c7 -3 16 -2 19 1 4 3 -2 6 -13 5 -11 0 -14 -3 -6 -6z"/>
<path d="M1322 3328 c-33 -105 -48 -172 -32 -148 5 8 10 23 10 32 0 10 13 59
30 110 16 51 27 94 25 96 -2 2 -17 -38 -33 -90z"/>
<path d="M1266 3098 c-11 -35 -13 -58 -6 -53 4 3 10 18 12 35 5 30 1 41 -6 18z"/>
<path d="M1251 3018 c0 -9 -4 -25 -7 -35 -5 -17 -5 -17 6 0 6 10 9 25 7 35 -4
15 -5 15 -6 0z"/>
<path d="M1239 2943 c0 -10 -2 -28 -5 -40 -2 -13 -1 -23 4 -23 4 0 8 18 9 40
2 22 0 40 -2 40 -3 0 -5 -8 -6 -17z"/>
<path d="M1232 2845 c0 -16 2 -22 5 -12 2 9 2 23 0 30 -3 6 -5 -1 -5 -18z"/>
<path d="M1228 2785 c-3 -14 -2 -28 2 -30 4 -2 6 -17 4 -32 -4 -27 -3 -28 5
-3 4 14 5 30 2 35 -3 6 -4 20 -2 33 4 30 -6 28 -11 -3z"/>
<path d="M1232 2648 c2 -15 7 -30 11 -34 3 -3 4 6 1 22 -7 37 -16 47 -12 12z"/>
<path d="M1242 2575 c0 -16 2 -22 5 -12 2 9 2 23 0 30 -3 6 -5 -1 -5 -18z"/>
<path d="M1252 2510 c0 -19 2 -27 5 -17 2 9 2 25 0 35 -3 9 -5 1 -5 -18z"/>
<path d="M1253 2463 c3 -5 7 -26 9 -46 1 -20 5 -34 8 -32 10 6 -1 74 -13 82
-5 3 -7 2 -4 -4z"/>
<path d="M1272 2342 c1 -18 6 -32 10 -32 5 0 5 12 2 28 -10 39 -15 41 -12 4z"/>
<path d="M1281 2284 c0 -11 3 -14 6 -6 3 7 2 16 -1 19 -3 4 -6 -2 -5 -13z"/>
<path d="M1290 2241 c0 -11 4 -22 9 -25 4 -3 6 6 3 19 -5 30 -12 33 -12 6z"/>
<path d="M1300 2186 c0 -8 4 -17 9 -20 5 -4 7 3 4 14 -6 23 -13 26 -13 6z"/>
<path d="M1310 2135 c0 -8 4 -15 10 -15 5 0 7 7 4 15 -4 8 -8 15 -10 15 -2 0
-4 -7 -4 -15z"/>
<path d="M1320 2103 c0 -7 4 -22 9 -35 5 -13 12 -34 15 -48 3 -14 12 -34 21
-45 15 -18 15 -17 0 12 -8 18 -15 38 -15 46 0 18 -29 87 -30 70z"/>
<path d="M1380 1931 c5 -11 15 -30 20 -43 6 -13 22 -41 36 -63 13 -22 27 -48
31 -57 3 -10 10 -18 15 -18 6 0 3 11 -6 25 -30 46 -55 90 -75 133 -11 23 -23
42 -26 42 -3 0 -1 -9 5 -19z"/>
<path d="M3879 1821 c-130 -266 -397 -489 -693 -580 -37 -11 -80 -23 -95 -26
-126 -24 -173 -28 -291 -29 -190 -1 -354 20 -446 59 -20 8 -43 15 -51 15 -20
0 -201 91 -260 131 -141 95 -284 245 -376 394 -20 33 -37 57 -37 55 -1 -3 -1
-183 -2 -400 l-1 -395 854 0 854 -1 2 -499 c2 -275 6 -499 10 -498 5 0 26 4
48 7 22 4 56 11 75 16 19 5 46 11 60 14 14 3 35 7 48 10 12 4 30 8 40 10 9 2
71 22 137 44 252 85 517 225 720 381 83 63 80 61 223 201 125 123 260 290 338
420 21 36 43 68 49 72 5 4 6 8 1 8 -5 0 -2 8 6 18 52 61 223 486 240 597 3 20
-3 20 -713 21 l-717 1 -23 -46z"/>
<path d="M1495 1730 c3 -5 8 -10 11 -10 2 0 4 5 4 10 0 6 -5 10 -11 10 -5 0
-7 -4 -4 -10z"/>
<path d="M1536 1675 c4 -8 11 -15 16 -15 6 0 5 6 -2 15 -7 8 -14 15 -16 15 -2
0 -1 -7 2 -15z"/>
<path d="M323 1357 c-1 -106 -2 -196 -3 -202 -1 -5 -1 -12 0 -15 2 -7 3 -213
0 -225 -1 -5 -1 -12 0 -15 1 -3 1 -129 1 -280 -1 -329 -1 -343 4 -348 2 -2 0
-15 -5 -28 -5 -13 -6 -24 -2 -24 4 0 6 -40 5 -90 l-2 -90 42 -1 c317 -4 1894
-2 1891 3 -2 3 -23 9 -47 13 -78 12 -281 66 -387 102 -152 51 -242 91 -385
169 -95 52 -126 70 -149 87 -6 4 -42 28 -80 53 -37 26 -76 52 -85 59 -9 8 -45
37 -81 66 -36 29 -119 107 -185 174 -189 191 -338 399 -465 650 l-67 134 0
-192z"/>
<path d="M2370 29 c25 -5 74 -12 110 -15 86 -8 554 -9 605 -1 22 3 63 7 92 8
28 1 57 5 64 10 7 4 -197 7 -452 7 -297 0 -448 -4 -419 -9z"/>
</g>
</svg>
