<svg width="31" height="30" fill="none" xmlns="http://www.w3.org/2000/svg"><path fill-rule="evenodd" clip-rule="evenodd" d="M15.504.875C7.424.875.879 7.421.879 15.5c0 6.46 4.19 11.945 10.002 13.878.733.133 1-.315 1-.705 0-.348-.014-1.266-.02-2.485-4.07.88-4.927-1.962-4.927-1.962-.666-1.69-1.623-2.142-1.623-2.142-1.328-.904.1-.885.1-.885 1.466.104 2.237 1.504 2.237 1.504 1.305 2.238 3.423 1.59 4.257 1.219.133-.948.514-1.59.928-1.957-3.247-.366-6.66-1.623-6.66-7.227 0-1.6.57-2.904 1.504-3.927-.148-.367-.652-1.857.143-3.87 0 0 1.228-.391 4.023 1.499a14 14 0 0 1 3.66-.49 14 14 0 0 1 3.662.49c2.794-1.89 4.018-1.5 4.018-1.5.8 2.014.3 3.504.147 3.87.938 1.024 1.5 2.329 1.5 3.928 0 5.618-3.418 6.851-6.675 7.218.524.447.99 1.342.99 2.704 0 1.956-.014 3.532-.014 4.013 0 .39.262.847 1.005.705 5.808-1.938 9.993-7.418 9.993-13.878 0-8.079-6.546-14.625-14.625-14.625z" fill="#37474F"/></svg>