<svg xmlns="http://www.w3.org/2000/svg" viewBox="0 0 50 50" fill="#5B5B5B"><path d="M6 2v45h31l-2-2H8V4h33v22h2V2zm9.406 6c-2.18.04-2.36 1.73-1.937 3.36 0 0-.227.23-.215.55.023.613.43.809.43.809.078.57.578 1.078.757 1.172 0 .363.04.64 0 1.039-.43 1.16-3.308.832-3.441 3.07h8.89c-.136-2.238-3.015-1.91-3.449-3.07-.035-.399 0-.676 0-1.04.25-.117.66-.593.743-1.171 0 0 .425-.274.425-.723 0-.316-.105-.55-.187-.637.226-.695.621-2.808-.895-2.808-.164-.285-.574-.551-1.12-.551zM26 10a1.006 1.006 0 0 0-.879.496 1.01 1.01 0 0 0 0 1.008c.184.312.52.5.879.496h8c.36.004.695-.184.879-.496a1.01 1.01 0 0 0 0-1.008c-.184-.312-.52-.5-.879-.496zm0 5a1.006 1.006 0 0 0-.879.496 1.01 1.01 0 0 0 0 1.008c.184.312.52.5.879.496h8c.36.004.695-.184.879-.496a1.01 1.01 0 0 0 0-1.008c-.184-.312-.52-.5-.879-.496zM12 25a1.006 1.006 0 0 0-.879.496 1.01 1.01 0 0 0 0 1.008c.184.312.52.5.879.496h14c.36.004.695-.184.879-.496a1.01 1.01 0 0 0 0-1.008c-.184-.312-.52-.5-.879-.496zm24 3v9h-5.191l1.437 1.656 7.254 8.348L48.191 37H43v-9zm2 2h3v9h2.809L39.5 43.957 35.191 39H38zm-26 1a1.006 1.006 0 0 0-.879.496 1.01 1.01 0 0 0 0 1.008c.184.312.52.5.879.496h11c.36.004.695-.184.879-.496a1.01 1.01 0 0 0 0-1.008c-.184-.312-.52-.5-.879-.496zm0 6a1.006 1.006 0 0 0-.879.496 1.01 1.01 0 0 0 0 1.008c.184.312.52.5.879.496h14c.36.004.695-.184.879-.496a1.01 1.01 0 0 0 0-1.008c-.184-.312-.52-.5-.879-.496z"/></svg>